<?xml version="1.0" encoding="UTF-8"?>
<svg width="752pt" height="752pt" version="1.1" viewBox="0 0 752 752" xmlns="http://www.w3.org/2000/svg">
 <path d="m498.69 200.63c-1.3828 0.15625-2.6289 0.91406-3.4023 2.0703l-246.26 340.98c-0.84375 1.0117-1.2305 2.332-1.0586 3.6406 0.16797 1.3086 0.875 2.4844 1.9492 3.25 1.0742 0.76563 2.4219 1.0469 3.7109 0.77734 1.293-0.26953 2.4141-1.0625 3.0938-2.1914l25.898-35.816h244.48c1.2695 0.019531 2.4922-0.47266 3.3945-1.3633 0.90234-0.89062 1.4102-2.1055 1.4102-3.3711 0-1.2695-0.50781-2.4844-1.4102-3.375s-2.125-1.3789-3.3945-1.3633h-237.68l52.535-72.664 21.906 14.949c1.7656 1.2227 4.1367 1.0977 5.7695-0.29688l115.29-96.789 91.609 77.844c0.85938 0.75391 1.9609 1.1758 3.1055 1.1836v75.773h-14.355c-1.2656-0.015626-2.4883 0.47266-3.3906 1.3633-0.90234 0.89062-1.4102 2.1055-1.4102 3.375 0 1.2656 0.50781 2.4805 1.4102 3.3711 0.90234 0.89063 2.125 1.3828 3.3906 1.3633h19.094c2.6133 0 4.7344-2.1211 4.7344-4.7344v-265.21c0-2.6133-2.1211-4.7344-4.7344-4.7344h-103.45l22.051-30.488c1.1289-1.5078 1.2578-3.543 0.32422-5.1797-0.92969-1.6367-2.7422-2.5664-4.6172-2.3672zm-331.95 38.035c-2.2656 0.42969-3.8906 2.4297-3.8477 4.7344v265.21c0 2.6133 2.1211 4.7344 4.7344 4.7344h66.301c1.2695 0.019531 2.4922-0.47266 3.3945-1.3633 0.90234-0.89062 1.4102-2.1055 1.4102-3.3711 0-1.2695-0.50781-2.4844-1.4102-3.375-0.90234-0.89062-2.125-1.3789-3.3945-1.3633h-61.562v-47.355c0.95703-0.023438 1.8828-0.33203 2.6641-0.89062l101.52-69.262 30.043 20.574c2.1641 1.4688 5.1133 0.90625 6.5859-1.2578 1.4688-2.168 0.90625-5.1172-1.2578-6.5859l-32.707-22.348c-1.0391-0.71094-2.3164-0.97656-3.5547-0.74219-0.63672 0.125-1.2383 0.375-1.7734 0.74219l-101.52 69.262v-197.87h252.48c1.2656 0.019532 2.4883-0.47266 3.3906-1.3633 0.90234-0.88672 1.4141-2.1016 1.4141-3.3711 0-1.2656-0.51172-2.4805-1.4141-3.3711-0.90234-0.89062-2.125-1.3828-3.3906-1.3633h-257.21c-0.29297-0.027343-0.59375-0.027343-0.88672 0zm307.38 9.4688h105.52v168.86l-91.609-77.844c-1.1016-0.94141-2.5742-1.3203-3.9961-1.0391-0.81641 0.14453-1.582 0.50391-2.2188 1.0391l-115.58 97.082-18.797-12.727zm-192.84 23.68c-20.867 0-37.887 17.02-37.887 37.887 0 20.867 17.02 37.887 37.887 37.887 20.867 0 37.887-17.02 37.887-37.887 0-20.867-17.02-37.887-37.887-37.887zm0 9.4727c15.75 0 28.414 12.664 28.414 28.414s-12.664 28.414-28.414 28.414-28.414-12.664-28.414-28.414 12.664-28.414 28.414-28.414z"/>
</svg>
